<?xml version="1.0" encoding="UTF-8"?>
<svg id="White" xmlns="http://www.w3.org/2000/svg" viewBox="0 0 1024 300">
  <defs>
    <style>
      .cls-1 {
        fill: #fff;
        stroke-width: 0px;
      }
    </style>
  </defs>
  <path class="cls-1" d="M374.74,32.18c5.89-7.07,13.15-10.6,21.8-10.6,7.85,0,14.53,2.75,20.03,8.25,5.5,5.5,8.25,12.18,8.25,20.03,0,7.07-1.97,12.77-5.89,17.08l-.59.59-142.57,192.05c-7.07,9.04-16.01,16.4-26.81,22.09-10.81,5.7-22.49,8.54-35.05,8.54-11.78,0-22.88-2.55-33.29-7.66-10.41-5.1-19.15-12.17-26.22-21.21L11.25,69.88c-2.36-2.74-4.33-5.79-5.89-9.13-1.57-3.33-2.36-6.97-2.36-10.9,0-7.85,2.74-14.53,8.25-20.03,5.5-5.5,12.17-8.25,20.03-8.25,9.43,0,16.88,3.74,22.39,11.19l137.27,183.22c2.74,3.15,6.19,6.58,10.31,10.31,4.12,3.74,8.34,5.6,12.67,5.6s8.54-1.86,12.67-5.6c4.12-3.73,7.36-7.16,9.72-10.31L374.74,32.18Z"/>
  <path class="cls-1" d="M532.03,270.18c-5.5,5.5-12.18,8.25-20.03,8.25s-14.53-2.74-20.03-8.25c-5.5-5.5-8.25-12.17-8.25-20.03V49.85c0-7.85,2.74-14.53,8.25-20.03,5.5-5.5,12.17-8.25,20.03-8.25s14.53,2.75,20.03,8.25c5.5,5.5,8.25,12.18,8.25,20.03v200.3c0,7.86-2.75,14.53-8.25,20.03Z"/>
  <path class="cls-1" d="M649.26,267.82c-5.89,7.07-13.16,10.6-21.8,10.6-7.86,0-14.53-2.74-20.03-8.25-5.5-5.5-8.25-12.17-8.25-20.03,0-7.07,1.96-12.76,5.89-17.09l143.16-192.64c6.67-9.03,15.51-16.39,26.51-22.09,10.99-5.69,22.77-8.54,35.35-8.54,11.78,0,22.98,2.56,33.58,7.66,10.6,5.11,19.24,12.18,25.92,21.21l143.16,191.46c2.36,2.75,4.32,5.8,5.89,9.13,1.57,3.34,2.36,6.98,2.36,10.9,0,7.86-2.75,14.53-8.25,20.03s-12.18,8.25-20.03,8.25c-9.43,0-16.89-3.73-22.39-11.19l-137.27-183.22c-2.75-3.14-6.19-6.57-10.31-10.31-4.12-3.73-8.35-5.6-12.67-5.6s-8.54,1.87-12.67,5.6c-4.12,3.74-7.36,7.17-9.72,10.31l-138.44,183.81ZM773.57,214.8c0-10.21,3.53-18.85,10.6-25.92,7.07-7.07,15.7-10.6,25.92-10.6s18.85,3.53,25.92,10.6c7.07,7.07,10.6,15.71,10.6,25.92s-3.53,18.85-10.6,25.92c-7.07,7.07-15.71,10.6-25.92,10.6s-18.85-3.53-25.92-10.6c-7.07-7.07-10.6-15.7-10.6-25.92Z"/>
</svg>